# xmcd
#
# Track frame offsets:
#	150
#	13337
#	29449
#	42268
#	54745
#	69263
#	85012
#	99300
#	109091
#	122779
#	140158
#	150257
#	159490
#	169988
#
# Disc length: 2402 seconds
#
# Revision: 0
# Processed by: cddbd v1.5.2PL0 Copyright (c) Steve Scherf et al.
# Submitted via: EasyCDDAExtractor 15.3.0.1
#
DISCID=b509600e
DTITLE=Charley Pride - 14 Great Hits
DYEAR=2014
DGENRE=
TTITLE0=I Ain't All Bad
TTITLE1=Roll On Mississippi
TTITLE2=Chrystal Chandelier
TTITLE3=The Snakes Crawl At Night
TTITLE4=Kaw-Liga
TTITLE5=Me And Bobby McGee
TTITLE6=Amazing Love
TTITLE7=Someone Loves You Honey
TTITLE8=All I Have To Offer You (Is Me)
TTITLE9=Did You Think To Pray
TTITLE10=Is Anybody Goun' To San Antone
TTITLE11=Kiss An Angel Good Mornin'
TTITLE12=Does My Ring Hurt Your Finger
TTITLE13=Just Between You And Me
EXTD=
EXTT0=
EXTT1=
EXTT2=
EXTT3=
EXTT4=
EXTT5=
EXTT6=
EXTT7=
EXTT8=
EXTT9=
EXTT10=
EXTT11=
EXTT12=
EXTT13=
PLAYORDER=
